<svg xmlns="http://www.w3.org/2000/svg" xml:space="preserve" viewBox="0 0 328 115">
  <path fill="none" d="M3.6e-7 1.14635214h115.47039277v114.99999855H3.6e-7Z"/>
  <g fill="#49c7b9" stroke-width="0" color="#000">
    <path d="m85.61122432 58.2918627-14.31834947-8.2170628c-.36402613-.18125918-.84939332-.18125918-1.21341946 0L55.7004364 58.3522821c-.24268309.1208398-.36402414.36251837-.42469566.60419695l.08669214 16.9918166c.0969411.65866594.51071817.95213897.51071817.95213897l13.76084927 7.96845485c.31020057.17987569.59276484.34149666.95168645.3367896.33220443-.0116583.65540832-.15241359.93585494-.33012658l14.15034814-8.27655491c.30335761-.1812582.5460397-.54377557.5460397-.90629394V59.37941583c0-.48335617-.24268209-.84587454-.60670523-1.08755312zM56.42848868 76.96151496l11.89150854 6.82740973Zm13.104928 4.77314924-11.89150854-6.8274147V61.3732619l11.89150854 6.8274137Zm1.21341947-15.58825505-11.95218007-6.82741271 11.89150854-6.8274137 11.89150355 6.8274137Zm13.104928 8.76084036L71.9602546 81.7346642V68.20067557l11.89150954-6.8274137zM.59628498 25.1100659a1.19359005 1.18864476 0 0 0-.5962457 1.031153v79.34828561a1.19359005 1.18864476 0 0 0 .5962457 1.03116791l13.80196192 7.9340922a1.19359005 1.18864476 0 0 0 1.7887361-1.0287329V34.07531707a1.19359005 1.18864476 0 0 0-.5962457-1.02871301L1.78877538 25.1100659a1.19359005 1.18864476 0 0 0-1.1924904 0zm1.7887361 3.08860287L13.79955122 34.761948v76.60421275L2.38502108 104.8028676z"/>
    <path d="M41.99970879 1.30532996.59628498 25.1100659l1.1924904 2.05987794 40.8071781-23.46264057 13.20326725 7.59200327 1.19494038-2.05743794-13.80196192-7.93653864a1.19359005 1.18864476 0 0 0-1.1924904 0zm.04170443 32.43767594-13.80194894 7.21569065a1.19359005 1.18864476 0 0 0-.6379671 1.05071866V57.8800535a1.19359005 1.18864476 0 0 0 1.79119904 1.02871201l13.79949997-7.93409815a1.19359005 1.18864476 0 0 0 .5962457-1.028713V34.79371263a1.19359005 1.18864476 0 0 0-1.74702867-1.05070674Zm-.6404041 3.01774269V49.2593234l-11.41207717 6.56083924V42.7278118Z"/>
    <path d="M55.79922073 9.2418686 14.3982469 33.04660405l1.1924904 2.05743894 39.61223773-22.77601052v45.56912285L28.21738258 72.70974204a1.19359005 1.18864476 0 0 0-.61588141 1.04093583v31.05464463l-13.20325427 7.59199622 1.1924904 2.0574459 13.79949997-7.9340922a1.19359005 1.18864476 0 0 0 .59869567-1.028713V74.45197064l26.98314248-14.81014673a1.19359005 1.18864476 0 0 0 .61833039-1.04093583V10.27059354a1.19359005 1.18864476 0 0 0-1.79118508-1.02872494z"/>
    <path d="m29.39023727 40.98069028-1.1924914 2.05989085 13.80196292 7.93408623 1.1924904-2.05743894z"/>
  </g>
  <path fill="#111" d="M142.89896 72.073152V89.31678h-6.34071V33.874263h20.14334q4.29158 0 8.04188 1.546513 3.75029 1.546514 6.30204 4.175587 2.55175 2.590411 3.98227 6.070067 1.46919 3.440993 1.46919 7.229952 0 5.064832-2.47442 9.433733-2.43576 4.368902-7.03664 7.075301-4.56221 2.667736-10.28432 2.667736zm13.14537-5.490124q4.40756 0 7.6939-1.971805 3.32501-2.010468 4.91018-5.064832 1.58518-3.093028 1.58518-6.650009 0-3.556982-1.58518-6.572684-1.58517-3.054364-4.91018-4.987507-3.28634-1.971805-7.6939-1.971805h-13.14537v27.218642zm54.59193 21.999158q-4.02093 1.701165-8.7378 1.701165t-8.7378-1.701165q-4.02094-1.701165-6.68867-4.523553-2.66774-2.822387-4.17559-6.495357-1.46919-3.711633-1.46919-7.732569 0-5.374135 2.51309-9.975014 2.51308-4.639541 7.3846-7.539254 4.91018-2.899713 11.17356-2.899713t11.1349 2.899713q4.91018 2.899713 7.42327 7.539254 2.51308 4.600879 2.51308 9.975014 0 4.020936-1.50785 7.732569-1.46919 3.67297-4.13692 6.495357-2.66774 2.822388-6.68868 4.523553zm-8.7378-34.023302q-4.52355 0-8.00321 2.203782-3.47965 2.165119-5.25814 5.606112-1.7785 3.440993-1.7785 7.461929 0 4.020936 1.7785 7.461929 1.77849 3.440993 5.25814 5.644775 3.47966 2.165119 8.00321 2.165119 4.56222 0 8.04187-2.165119 3.47966-2.203782 5.21949-5.644775 1.77849-3.440993 1.77849-7.461929 0-4.020936-1.77849-7.461929-1.73983-3.440993-5.21949-5.606112-3.47965-2.203782-8.04187-2.203782zm30.93028 34.757896V31.515829h6.18605V89.31678Zm18.8288 0V31.515829h6.18605V89.31678Zm22.15382-16.934325q.73459 6.147392 4.52355 9.665711 3.82762 3.479655 9.97501 3.479655 4.40757 0 7.8099-1.855816 3.44099-1.855817 5.25814-4.794193h5.83809q-2.35843 4.987507-7.42326 8.196523-5.02617 3.209016-11.40554 3.209016-6.26338 0-11.05758-2.783725-4.75552-2.822387-7.19128-7.423265-2.43576-4.600879-2.43576-10.245654 0-5.683438 2.55174-10.322979 2.59041-4.639541 7.26862-7.34594 4.6782-2.745062 10.51629-2.745062 6.03141 0 10.63228 2.706399 4.60088 2.667736 6.99798 7.191289 2.43576 4.523552 2.43576 10.129665v2.938376zm14.34391-18.364851q-5.87675 0-9.82036 3.750296-3.94361 3.711633-4.60088 9.859025h28.57184q-.46395-6.031404-4.25291-9.820362-3.7503-3.788959-9.89769-3.788959zm35.9951 35.299176h-6.18605V50.344634h5.91541v7.61658q1.58518-4.136924 5.4128-6.340706 3.86629-2.203782 9.16309-2.203782 6.99798 0 11.25089 4.948844 4.29158 4.910181 4.29158 12.604087V89.31678h-6.18606V68.168205q0-6.070067-2.78372-9.627048-2.78373-3.595645-8.46716-3.595645-5.4128 0-8.93112 3.750296-3.47966 3.750296-3.47966 9.317745z" aria-label="Pollora" font-family="Scandia" font-size="79.1815" paint-order="fill markers stroke" style="-inkscape-font-specification:Scandia" transform="matrix(.99591777 0 0 .99591781 -24.552985 -3.15098633)"/>
</svg>
