<?xml version="1.0" encoding="UTF-8" standalone="no"?>
<svg
   width="793.70496"
   height="320.4473"
   version="1.1"
   id="svg23"
   sodipodi:docname="pollora-logo.svg"
   inkscape:export-filename="pollora-logo.png"
   inkscape:export-xdpi="96"
   inkscape:export-ydpi="96"
   xmlns:inkscape="http://www.inkscape.org/namespaces/inkscape"
   xmlns:sodipodi="http://sodipodi.sourceforge.net/DTD/sodipodi-0.dtd"
   xmlns:xlink="http://www.w3.org/1999/xlink"
   xmlns="http://www.w3.org/2000/svg"
   xmlns:svg="http://www.w3.org/2000/svg">
  <sodipodi:namedview
     id="namedview23"
     pagecolor="#ffffff"
     bordercolor="#000000"
     borderopacity="0.25"
     inkscape:showpageshadow="2"
     inkscape:pageopacity="0.0"
     inkscape:pagecheckerboard="0"
     inkscape:deskcolor="#d1d1d1">
    <inkscape:page
       x="0"
       y="0"
       width="793.70496"
       height="320.4473"
       id="page2"
       margin="0"
       bleed="0" />
  </sodipodi:namedview>
  <defs
     id="defs3">
    <linearGradient
       id="linearGradient41"
       inkscape:collect="always">
      <stop
         style="stop-color:#fb196d;stop-opacity:1;"
         offset="0"
         id="stop41" />
      <stop
         style="stop-color:#ff314c;stop-opacity:1;"
         offset="0.35324967"
         id="stop43" />
      <stop
         style="stop-color:#ff5334;stop-opacity:1;"
         offset="0.52107716"
         id="stop44" />
      <stop
         style="stop-color:#ff8c12;stop-opacity:1;"
         offset="1"
         id="stop42" />
    </linearGradient>
    <inkscape:path-effect
       effect="powerclip"
       message=""
       id="path-effect28"
       is_visible="true"
       lpeversion="1"
       inverse="true"
       flatten="false"
       hide_clip="false" />
    <inkscape:path-effect
       effect="powerclip"
       message=""
       id="path-effect27"
       is_visible="true"
       lpeversion="1"
       inverse="true"
       flatten="false"
       hide_clip="false" />
    <inkscape:path-effect
       effect="powerclip"
       message=""
       id="path-effect26"
       is_visible="true"
       lpeversion="1"
       inverse="true"
       flatten="false"
       hide_clip="false" />
    <inkscape:path-effect
       effect="powerclip"
       message=""
       id="path-effect25"
       is_visible="true"
       lpeversion="1"
       inverse="true"
       flatten="false"
       hide_clip="false" />
    <clipPath
       clipPathUnits="userSpaceOnUse"
       id="clipPath25">
      <path
         fill="#1d142a"
         d="m 447.031,458.554 c 9.916,-0.076 24.146,-1.451 31.799,6.214 3.543,3.547 4.741,8.388 4.759,13.273 0.022,5.793 -1.8,9.798 -5.808,13.899 -8.735,6.679 -20.2,5.627 -30.576,5.737 -0.468,-12.998 -0.157,-26.111 -0.174,-39.123 z"
         id="path25"
         style="display:none" />
      <path
         id="lpe_path-effect25"
         class="powerclip"
         d="m 419.377,433.89122 h 93.1745 V 559.349 H 419.377 Z m 27.654,24.66278 c 0.017,13.012 -0.294,26.125 0.174,39.123 10.376,-0.11 21.841,0.942 30.576,-5.737 4.008,-4.101 5.83,-8.106 5.808,-13.899 -0.018,-4.885 -1.216,-9.726 -4.759,-13.273 -7.653,-7.665 -21.883,-6.29 -31.799,-6.214 z" />
    </clipPath>
    <clipPath
       clipPathUnits="userSpaceOnUse"
       id="clipPath26">
      <path
         fill="#1d142a"
         d="m 548.258,486.599 c 4.458,-0.404 8.478,-0.34 12.526,1.819 4.913,2.622 8.055,7.27 9.672,12.502 2.543,8.224 2.277,19.402 -1.992,27.004 -2.729,4.86 -6.57,7.457 -11.833,8.968 -3.811,0.744 -7.64,0.538 -11.237,-1.019 -4.871,-2.108 -8.155,-6.291 -10.012,-11.17 -3.147,-8.268 -3.128,-19.758 0.722,-27.779 2.643,-5.505 6.496,-8.448 12.154,-10.325 z"
         id="path26"
         style="display:none" />
      <path
         id="lpe_path-effect26"
         class="powerclip"
         d="m 505.34715,462.21396 h 94.67727 v 99.06378 H 505.34715 Z M 548.258,486.599 c -5.658,1.877 -9.511,4.82 -12.154,10.325 -3.85,8.021 -3.869,19.511 -0.722,27.779 1.857,4.879 5.141,9.062 10.012,11.17 3.597,1.557 7.426,1.763 11.237,1.019 5.263,-1.511 9.104,-4.108 11.833,-8.968 4.269,-7.602 4.535,-18.78 1.992,-27.004 -1.617,-5.232 -4.759,-9.88 -9.672,-12.502 -4.048,-2.159 -8.068,-2.223 -12.526,-1.819 z" />
    </clipPath>
    <clipPath
       clipPathUnits="userSpaceOnUse"
       id="clipPath27">
      <path
         fill="#1d142a"
         d="m 713.79,486.578 c 4.261,-0.295 8.057,-0.249 11.982,1.753 5.181,2.644 8.454,7.584 10.028,13.07 2.328,8.112 1.98,19.319 -2.331,26.688 -2.756,4.711 -6.699,7.423 -11.89,8.847 -4.282,0.574 -8.441,0.342 -12.339,-1.673 -4.845,-2.504 -7.795,-7.106 -9.426,-12.177 -2.634,-8.186 -2.219,-19.439 1.919,-27.06 2.779,-5.117 6.618,-7.732 12.057,-9.448 z"
         id="path27"
         style="display:none" />
      <path
         id="lpe_path-effect27"
         class="powerclip"
         d="m 670.70593,462.3316 h 94.3016 v 98.91501 h -94.3016 z M 713.79,486.578 c -5.439,1.716 -9.278,4.331 -12.057,9.448 -4.138,7.621 -4.553,18.874 -1.919,27.06 1.631,5.071 4.581,9.673 9.426,12.177 3.898,2.015 8.057,2.247 12.339,1.673 5.191,-1.424 9.134,-4.136 11.89,-8.847 4.311,-7.369 4.659,-18.576 2.331,-26.688 -1.574,-5.486 -4.847,-10.426 -10.028,-13.07 -3.925,-2.002 -7.721,-2.048 -11.982,-1.753 z" />
    </clipPath>
    <clipPath
       clipPathUnits="userSpaceOnUse"
       id="clipPath28">
      <path
         fill="#1d142a"
         d="m 862.256,516.182 c 5.276,-0.348 10.595,-0.203 15.881,-0.185 0.057,4.39 -0.109,7.704 -2.264,11.704 -2.936,5.448 -7.682,8.825 -13.481,10.598 -4.399,0.43 -8.982,0.242 -12.659,-2.546 -2.151,-1.631 -3.567,-3.999 -3.829,-6.699 -0.268,-2.752 0.658,-5.431 2.421,-7.535 3.507,-4.187 8.854,-4.811 13.931,-5.337 z"
         id="path28"
         style="display:none" />
      <path
         id="lpe_path-effect28"
         class="powerclip"
         d="m 818.62868,462.17894 h 86.54669 v 98.85524 H 818.62868 Z M 862.256,516.182 c -5.077,0.526 -10.424,1.15 -13.931,5.337 -1.763,2.104 -2.689,4.783 -2.421,7.535 0.262,2.7 1.678,5.068 3.829,6.699 3.677,2.788 8.26,2.976 12.659,2.546 5.799,-1.773 10.545,-5.15 13.481,-10.598 2.155,-4 2.321,-7.314 2.264,-11.704 -5.286,-0.018 -10.605,-0.163 -15.881,0.185 z" />
    </clipPath>
    <linearGradient
       inkscape:collect="always"
       xlink:href="#linearGradient41"
       id="linearGradient42"
       x1="139.3102"
       y1="408.88599"
       x2="354.36539"
       y2="589.33868"
       gradientUnits="userSpaceOnUse"
       gradientTransform="translate(-106.47041,-338.88884)" />
  </defs>
  <rect
     style="fill:#1d142a;fill-opacity:1;stroke-width:1.13606"
     id="rect44"
     width="238.78709"
     height="150.46829"
     x="21.104834"
     y="46.684582"
     ry="75.234146" />
  <path
     id="path3"
     clip-path="none"
     style="display:inline;fill:url(#linearGradient42)"
     d="m 136.44951,0.04670808 c -3.62261,0.11588 -7.14131,0.44865 -10.50781,1.01953002 -17.3125,0.74812 -35.121397,7.301 -50.554687,17.0195299 -6.17326,3.88726 -11.96614,8.2826 -17.19531,13.01367 -2.6146,2.36557 -5.08881,4.815 -7.39844,7.32813 -7.283,7.924 -13.16767,16.61566 -17.79883,25.94726 -4.63115,9.33161 -8.00879,19.30316 -10.27929,29.78516 -1.079,4.98 -2.22499,10.388952 -2.33399,15.501952 -2.268,9.316 -2.05889,26.93869 -2.33789,37.05469 -0.796,28.908 -0.26589,62.26833 -4.96289,90.48633 -1.378,7.88 -3.1804802,15.67823 -5.3964802,23.36523 -3.659,12.373 -12.16961,28.17312 -4.72461,40.62109 3.001,5.01802 8.5384802,8.21185 14.1464802,9.46485 7.801,1.744 15.64769,-0.62483 22.17969,-4.92383 7.229,-4.757 15.56337,-13.85558 24.98437,-12.01758 10.484,2.045 14.09224,14.95635 22.11524,20.65235 0.55497,0.54701 0.4898,0.50136 1.19141,1.08203 2.806,2.323 7.21695,3.97151 10.75195,4.60351 20.650997,3.694 24.954617,-19.59662 40.390617,-20.76562 10.138,-0.767 16.3445,9.14331 23.1875,14.94531 5.293,4.487 11.63708,6.68481 18.58008,6.00781 12.117,-1.18 17.27986,-10.65806 24.25586,-19.16406 18.626,-22.709 29.50278,12.77536 55.05273,9.94336 6.67101,-0.739 13.10535,-3.54892 17.27735,-8.91992 8.709,-11.211 -0.38019,-29.99999 -3.99219,-41.83399 -2.049,-6.741 -3.79447,-13.56979 -5.23047,-20.46679 -6.051,-28.84 -5.08314,-60.09675 -5.61914,-89.46875 -0.239,-13.032 -0.47611,-26.34935 -2.28711,-39.27735 -0.022,-3.67888 -0.66002,-7.62203 -1.25,-11.253902 -4.947,-30.486 -21.97162,-59.21167 -47.26562,-77.13867 C 192.26815,9.0788981 161.80779,-0.76447192 136.44951,0.04670808 Z M 80.168263,64.556468 c 1.48764,0.0425 2.96421,0.15671 4.42383,0.34571 4.376,0.566 8.69789,1.94468 12.96289,3.05468 15.796747,7.39198 27.863537,17.47226 33.896487,34.330082 0.87298,2.441 1.53845,4.96952 2.18945,7.47852 l 15.60937,0.0312 c 4.888,-16.608002 13.55489,-29.870162 29.08789,-38.285162 12.72,-6.934 27.69174,-8.46495 41.55274,-4.25195 14.386,4.426 26.17926,14.00837 33.19726,27.35937 2.674,5.084 4.86671,10.786282 5.72071,16.488282 1.942,15.557 -1.37539,30.82094 -11.15039,43.33594 -8.841,11.319 -22.55243,19.4845 -36.85743,21.1875 -14.916,1.776 -29.04128,-2.00261 -40.86328,-11.34961 -13.018,-10.293 -19.6774,-24.77706 -21.4414,-41.03906 l -0.0527,-0.49219 -14.02734,-0.0605 c -1.617,16.61402 -5.69322,23.37244 -15.44922,36.52344 -1.85482,1.71286 -3.66985,3.49041 -5.63867,5.07227 -11.66,9.37 -25.959047,13.80795 -40.873047,12.12695 -14.751,-1.626 -28.21608,-9.15223 -37.33008,-20.86523 -10.697,-13.508 -13.39651,-28.79199 -11.47851,-45.58399 3.1825,-10.366872 6.61076,-18.788142 12.53711,-25.880862 1.18527,-1.41854 2.47192,-2.78446 3.875,-4.10156 1.40274,-1.31675 2.92361,-2.5873 4.58008,-3.8125 1.6569,-1.2255 3.44973,-2.40703 5.39648,-3.55078 5.03098,-2.9557 10.75086,-5.26187 16.67187,-6.64063 0.23849,-0.0555 0.4816,-0.0842 0.72071,-0.13671 2.58647,-0.56788 5.203,-0.96596 7.81836,-1.1543 1.64617,-0.11855 3.29023,-0.1756 4.92187,-0.12891 z m 123.271487,13.86133 c -1.42145,0.0211 -2.85457,0.11545 -4.29688,0.2832 -23.214,2.7 -39.81067,23.755992 -37.01367,46.958992 2.798,23.203 23.92423,39.70945 47.11523,36.81445 23.053,-2.878 39.44116,-23.85001 36.66016,-46.91601 C 243.2974,93.934988 224.76137,78.100938 203.43975,78.417798 Z m -125.273437,0.0273 c -1.4312,0.0188 -2.87367,0.11085 -4.32617,0.27735 -23.344,2.676 -40.07422,23.806582 -37.32422,47.142582 2.751,23.336 23.93472,39.99882 47.26172,37.17382 23.221997,-2.812 39.792677,-23.88032 37.054677,-47.11132 C 118.26545,94.148458 99.634283,78.163128 78.166313,78.445098 Z m 9.94531,23.806642 c 9.82161,-0.42155 18.559767,6.66219 19.994137,16.60157 1.531,10.602 -5.82669,20.43698 -16.429687,21.95898 -10.592,1.521 -20.41436,-5.82892 -21.94336,-16.41992 -1.52899,-10.591 5.81235,-20.41808 16.40235,-21.95508 0.66256,-0.0962 1.32179,-0.15742 1.97656,-0.18555 z m 106.912107,0.0352 c 9.00259,0.43933 16.74659,7.18445 18.10547,16.45508 1.553,10.594 -5.8295,20.42377 -16.4375,21.88476 -10.478,1.44302 -20.15936,-5.82992 -21.69336,-16.29492 -1.534,-10.465 5.65347,-20.21193 16.10547,-21.83593 1.3225,-0.20563 2.63384,-0.27175 3.91992,-0.20899 z m -71.92578,64.77539 c 9.322,-0.07 6.83189,8.87024 13.83789,11.74024 8.913,3.651 12.86353,-6.70696 19.64453,-9.37696 1.37,-0.54 2.99808,-0.78586 4.33008,-0.006 1.651,0.968 2.7508,3.6205 3.0918,5.4375 0.652,3.477 -1.46658,6.26344 -3.39258,8.89844 -1.579,1.55 -3.14847,2.99619 -4.98047,4.24219 -5.525,3.758 -12.37299,5.38648 -18.95899,4.02148 -6.556,-1.358 -12.77017,-5.67061 -16.32617,-11.34961 -1.577,-2.519 -2.66389,-5.62756 -1.83789,-8.60156 0.712,-2.563 2.4238,-3.68686 4.5918,-5.00586 z" />
  <defs
     id="defs5" />
  <defs
     id="defs7" />
  <defs
     id="defs9" />
  <defs
     id="defs11" />
  <defs
     id="defs13">
    <linearGradient
       id="gradient_5"
       gradientUnits="userSpaceOnUse"
       x1="474.0795"
       y1="438.9924"
       x2="432.85065"
       y2="555.599">
      <stop
         offset="0"
         stop-color="#FF6A27"
         id="stop12" />
      <stop
         offset="1"
         stop-color="#FF3443"
         id="stop13" />
    </linearGradient>
  </defs>
  <path
     fill="url(#gradient_5)"
     d="m 424.424,438.997 26.32,-0.029 c 14.615,-0.013 30.86,-1.392 43.133,8.109 7.759,6.007 12.05,15.036 13.274,24.649 1.358,10.663 -0.645,22.414 -7.429,31.002 -7.612,9.634 -17.868,12.822 -29.624,14.213 -7.651,0.255 -15.307,0.347 -22.962,0.274 -0.087,12.375 -0.094,24.749 -0.022,37.124 -7.562,-0.186 -15.169,-0.002 -22.737,0.01 z"
     id="path13"
     clip-path="url(#clipPath25)"
     inkscape:path-effect="#path-effect25"
     inkscape:original-d="m 424.424,438.997 26.32,-0.029 c 14.615,-0.013 30.86,-1.392 43.133,8.109 7.759,6.007 12.05,15.036 13.274,24.649 1.358,10.663 -0.645,22.414 -7.429,31.002 -7.612,9.634 -17.868,12.822 -29.624,14.213 -7.651,0.255 -15.307,0.347 -22.962,0.274 -0.087,12.375 -0.094,24.749 -0.022,37.124 -7.562,-0.186 -15.169,-0.002 -22.737,0.01 z"
     style="fill:url(#gradient_5)"
     transform="translate(-106.47041,-338.88884)" />
  <defs
     id="defs15">
    <linearGradient
       id="gradient_6"
       gradientUnits="userSpaceOnUse"
       x1="570.41235"
       y1="471.86542"
       x2="534.44543"
       y2="551.34393">
      <stop
         offset="0"
         stop-color="#FF7225"
         id="stop14" />
      <stop
         offset="1"
         stop-color="#FF3F3C"
         id="stop15" />
    </linearGradient>
  </defs>
  <path
     fill="url(#gradient_6)"
     d="m 551.465,467.214 c 10.79,-0.013 20.817,3.056 29.05,10.222 9.002,7.836 13.641,19.013 14.384,30.776 0.772,12.208 -1.946,24.429 -10.211,33.749 -8.335,9.399 -18.72,13.584 -31.062,14.306 -10.652,0.223 -21.057,-3.024 -29.151,-10.063 -8.887,-7.729 -13.312,-18.814 -14.009,-30.406 -0.771,-12.818 2.134,-25.667 10.918,-35.392 8.007,-8.866 18.408,-12.565 30.081,-13.192 z"
     id="path15"
     clip-path="url(#clipPath26)"
     inkscape:path-effect="#path-effect26"
     inkscape:original-d="m 551.465,467.214 c 10.79,-0.013 20.817,3.056 29.05,10.222 9.002,7.836 13.641,19.013 14.384,30.776 0.772,12.208 -1.946,24.429 -10.211,33.749 -8.335,9.399 -18.72,13.584 -31.062,14.306 -10.652,0.223 -21.057,-3.024 -29.151,-10.063 -8.887,-7.729 -13.312,-18.814 -14.009,-30.406 -0.771,-12.818 2.134,-25.667 10.918,-35.392 8.007,-8.866 18.408,-12.565 30.081,-13.192 z"
     style="fill:url(#gradient_6)"
     transform="translate(-106.47041,-338.88884)" />
  <defs
     id="defs17">
    <linearGradient
       id="gradient_7"
       gradientUnits="userSpaceOnUse"
       x1="753.74298"
       y1="488.99643"
       x2="681.22369"
       y2="534.14697">
      <stop
         offset="0"
         stop-color="#FF911E"
         id="stop16" />
      <stop
         offset="1"
         stop-color="#FF7924"
         id="stop17" />
    </linearGradient>
  </defs>
  <path
     fill="url(#gradient_7)"
     d="m 711.494,467.659 c 10.147,-1.024 19.881,0.221 28.705,5.633 9.579,5.876 15.957,15.418 18.413,26.312 2.852,12.648 1.508,27.433 -5.661,38.465 -6.723,10.345 -16.683,15.329 -28.454,17.738 -10.819,1.323 -21.553,-0.206 -30.683,-6.424 -9.459,-6.443 -15.244,-16.112 -17.22,-27.315 -2.29,-12.981 -0.281,-27.415 7.544,-38.261 6.769,-9.382 16.126,-14.28 27.356,-16.148 z"
     id="path17"
     clip-path="url(#clipPath27)"
     inkscape:path-effect="#path-effect27"
     inkscape:original-d="m 711.494,467.659 c 10.147,-1.024 19.881,0.221 28.705,5.633 9.579,5.876 15.957,15.418 18.413,26.312 2.852,12.648 1.508,27.433 -5.661,38.465 -6.723,10.345 -16.683,15.329 -28.454,17.738 -10.819,1.323 -21.553,-0.206 -30.683,-6.424 -9.459,-6.443 -15.244,-16.112 -17.22,-27.315 -2.29,-12.981 -0.281,-27.415 7.544,-38.261 6.769,-9.382 16.126,-14.28 27.356,-16.148 z"
     style="fill:url(#gradient_7)"
     transform="translate(-106.47041,-338.88884)" />
  <path
     fill="#feb017"
     d="m 860.836,467.219 c 0.574,-0.018 1.148,-0.029 1.723,-0.035 10.171,-0.126 22.243,2.076 29.659,9.602 3.387,3.438 5.572,7.764 6.653,12.445 2.035,8.814 1.087,19.03 1.064,28.027 l 0.017,37.177 -21.007,-0.051 c -0.036,-4.055 0.035,-8.115 0.057,-12.17 -1.603,1.802 -3.239,3.64 -5.042,5.247 -6.767,6.033 -15.067,9.173 -24.171,8.478 -8.753,-0.669 -16.073,-4.172 -21.821,-10.892 -2.904,-4.822 -4.364,-9.954 -4.339,-15.576 0.03,-6.59 1.935,-12.7 6.788,-17.352 11.689,-11.204 32.759,-9.158 47.598,-9.063 0.008,-2.288 0.197,-4.708 -0.107,-6.975 -0.448,-3.344 -2.701,-6.68 -5.397,-8.627 -3.498,-2.526 -8.141,-3.231 -12.328,-2.427 -5.476,1.051 -8.709,4.312 -11.781,8.65 -6.935,0.005 -13.871,0.065 -20.802,-0.184 0.329,-5.46 1.869,-9.851 5.43,-14.091 6.947,-8.272 17.385,-11.47 27.806,-12.183 z"
     id="path19"
     clip-path="url(#clipPath28)"
     inkscape:path-effect="#path-effect28"
     inkscape:original-d="m 860.836,467.219 c 0.574,-0.018 1.148,-0.029 1.723,-0.035 10.171,-0.126 22.243,2.076 29.659,9.602 3.387,3.438 5.572,7.764 6.653,12.445 2.035,8.814 1.087,19.03 1.064,28.027 l 0.017,37.177 -21.007,-0.051 c -0.036,-4.055 0.035,-8.115 0.057,-12.17 -1.603,1.802 -3.239,3.64 -5.042,5.247 -6.767,6.033 -15.067,9.173 -24.171,8.478 -8.753,-0.669 -16.073,-4.172 -21.821,-10.892 -2.904,-4.822 -4.364,-9.954 -4.339,-15.576 0.03,-6.59 1.935,-12.7 6.788,-17.352 11.689,-11.204 32.759,-9.158 47.598,-9.063 0.008,-2.288 0.197,-4.708 -0.107,-6.975 -0.448,-3.344 -2.701,-6.68 -5.397,-8.627 -3.498,-2.526 -8.141,-3.231 -12.328,-2.427 -5.476,1.051 -8.709,4.312 -11.781,8.65 -6.935,0.005 -13.871,0.065 -20.802,-0.184 0.329,-5.46 1.869,-9.851 5.43,-14.091 6.947,-8.272 17.385,-11.47 27.806,-12.183 z"
     transform="translate(-106.47041,-338.88884)" />
  <defs
     id="defs21">
    <linearGradient
       id="gradient_8"
       gradientUnits="userSpaceOnUse"
       x1="638.52222"
       y1="445.32294"
       x2="592.97778"
       y2="547.17706"
       gradientTransform="translate(-106.47041,-338.88884)">
      <stop
         offset="0"
         stop-color="#FF841E"
         id="stop20" />
      <stop
         offset="1"
         stop-color="#FF5930"
         id="stop21" />
    </linearGradient>
  </defs>
  <path
     fill="url(#gradient_8)"
     d="m 498.46959,100.08116 22.126,0.02 v 115.382 l -22.135,-0.063 z"
     id="path21"
     style="fill:url(#gradient_8)" />
  <path
     fill="#fe7824"
     d="m 536.33259,100.07016 21.848,0.036 c -0.403,38.445 0,76.941 0.048,115.391 -7.28,-0.096 -14.569,-0.02 -21.85,-0.014 -0.536,-38.441 -0.034,-76.963 -0.046,-115.413 z"
     id="path22" />
  <defs
     id="defs23">
    <linearGradient
       id="gradient_9"
       gradientUnits="userSpaceOnUse"
       x1="826.03497"
       y1="500.01971"
       x2="762.03558"
       y2="516.33441"
       gradientTransform="translate(-106.47041,-338.88884)">
      <stop
         offset="0"
         stop-color="#FFA31A"
         id="stop22" />
      <stop
         offset="1"
         stop-color="#FF8C22"
         id="stop23" />
    </linearGradient>
  </defs>
  <path
     fill="url(#gradient_9)"
     d="m 707.11659,128.26716 c 1.861,-0.069 3.782,0.231 5.634,0.413 l 0.026,21.458 c -2.101,-0.393 -4.274,-0.738 -6.416,-0.723 -5.256,0.053 -10.274,2.196 -13.947,5.956 -2.825,2.906 -4.813,6.52 -5.753,10.462 -2.419,9.718 -1.06,38.102 -1.004,49.678 l -21.841,-0.035 -0.036,-5.801 -0.069,-79.177 21.837,0.064 -0.119,12.229 c 0.614,-1.055 1.264,-2.075 1.999,-3.051 4.98,-6.607 11.445,-10.353 19.689,-11.473 z"
     id="path23"
     style="fill:url(#gradient_9)" />
</svg>
